<svg xmlns="http://www.w3.org/2000/svg" viewBox="0 0 512 512" width="512" height="512">
  <defs>
    <!-- Glow filters -->
    <filter id="neon-glow-cyan" x="-50%" y="-50%" width="200%" height="200%">
      <feGaussianBlur stdDeviation="7" result="blur1" />
      <feGaussianBlur stdDeviation="3" result="blur2" />
      <feMerge>
        <feMergeNode in="blur1" />
        <feMergeNode in="blur2" />
        <feMergeNode in="SourceGraphic" />
      </feMerge>
    </filter>

    <filter id="neon-glow-purple" x="-50%" y="-50%" width="200%" height="200%">
      <feGaussianBlur stdDeviation="7" result="blur1" />
      <feGaussianBlur stdDeviation="3" result="blur2" />
      <feMerge>
        <feMergeNode in="blur1" />
        <feMergeNode in="blur2" />
        <feMergeNode in="SourceGraphic" />
      </feMerge>
    </filter>

    <clipPath id="logo-ball-clip">
      <circle cx="256" cy="256" r="185" />
    </clipPath>

    <!-- Gradients -->
    <linearGradient id="left-ring-grad" x1="0%" y1="0%" x2="0%" y2="100%">
      <stop offset="0%" stop-color="#ff00d0" />
      <stop offset="100%" stop-color="#8000ff" />
    </linearGradient>

    <linearGradient id="right-ring-grad" x1="0%" y1="0%" x2="0%" y2="100%">
      <stop offset="0%" stop-color="#00f6ff" />
      <stop offset="100%" stop-color="#003cd8" />
    </linearGradient>

    <linearGradient id="panel-grad" x1="0%" y1="0%" x2="100%" y2="100%">
      <stop offset="0%" stop-color="#14151e" />
      <stop offset="100%" stop-color="#090a0e" />
    </linearGradient>
  </defs>

  <!-- Background Glow behind the whole emblem -->
  <circle cx="256" cy="256" r="220" fill="#000000" />

  <!-- Background Soccer Ball Group (Clipped) -->
  <g clip-path="url(#logo-ball-clip)">
    <!-- Base Ball Face -->
    <circle cx="256" cy="256" r="185" fill="#07080c" />
    <path d="M 237.62 438.97 L 237.79 439.65 L 238.01 440.04 L 238.26 440.14 L 238.53 439.92 L 238.83 439.39 L 239.17 438.55 L 239.53 437.40 L 239.92 435.97 L 240.33 434.25 L 240.76 432.26 L 233.67 428.34 L 226.38 423.43 L 219.02 417.50 L 211.68 410.58 L 204.52 402.73 L 197.64 394.06 L 191.16 384.74 L 185.15 374.94 L 179.68 364.86 L 174.78 354.68 L 168.62 360.82 L 162.62 366.71 L 156.91 372.22 L 151.60 377.23 L 146.81 381.62 L 142.63 385.32 L 139.10 388.28 L 136.27 390.47 L 134.12 391.94 L 132.61 392.72 L 133.08 394.16 L 134.15 395.00 L 135.88 395.15 L 138.29 394.56 L 141.37 393.21 L 145.09 391.09 L 149.38 388.26 L 154.13 384.79 L 159.24 380.80 L 164.59 376.40 L 169.97 385.53 L 176.00 394.43 L 182.63 402.91 L 189.79 410.78 L 197.41 417.89 L 205.34 424.10 L 213.47 429.33 L 221.64 433.54 L 229.73 436.73 L 237.62 438.97 Z" fill="url(#panel-grad)" />
    <path d="M 365.21 398.15 L 365.70 399.88 L 366.02 401.40 L 366.17 402.70 L 366.13 403.75 L 365.90 404.56 L 365.48 405.12 L 364.89 405.43 L 364.11 405.48 L 363.17 405.29 L 362.06 404.86 L 358.59 408.96 L 354.49 412.50 L 349.75 415.35 L 344.41 417.42 L 338.52 418.62 L 332.17 418.91 L 325.48 418.31 L 318.55 416.87 L 311.55 414.68 L 304.56 411.85 L 298.50 415.06 L 292.28 418.06 L 285.94 420.82 L 279.50 423.32 L 273.01 425.54 L 266.49 427.48 L 259.97 429.13 L 253.49 430.47 L 247.07 431.51 L 240.76 432.26 L 240.33 434.25 L 239.92 435.97 L 239.53 437.40 L 239.17 438.55 L 238.83 439.39 L 238.53 439.92 L 238.26 440.14 L 238.01 440.04 L 237.79 439.65 L 237.62 438.97 L 243.59 438.95 L 249.66 438.63 L 255.81 438.00 L 261.99 437.06 L 268.19 435.82 L 274.37 434.27 L 280.49 432.42 L 286.53 430.29 L 292.47 427.90 L 298.26 425.27 L 306.07 426.35 L 313.97 426.65 L 321.81 426.10 L 329.48 424.62 L 336.84 422.19 L 343.74 418.85 L 350.08 414.65 L 355.80 409.70 L 360.85 404.16 L 365.21 398.15 Z" fill="url(#panel-grad)" />
    <path d="M 431.70 296.65 L 429.33 302.74 L 426.65 308.83 L 423.67 314.90 L 420.38 320.91 L 416.80 326.83 L 412.96 332.64 L 408.86 338.29 L 404.53 343.77 L 400.00 349.05 L 395.31 354.11 L 402.51 349.78 L 409.33 344.82 L 415.57 339.24 L 421.10 333.10 L 425.78 326.47 L 429.51 319.44 L 432.27 312.15 L 434.03 304.72 L 434.86 297.27 L 434.84 289.94 L 432.82 295.30 L 430.48 300.68 L 427.83 306.03 L 424.88 311.33 L 421.63 316.56 L 418.10 321.68 L 414.31 326.69 L 410.27 331.53 L 406.03 336.21 L 401.60 340.69 L 400.87 349.18 L 399.41 357.57 L 397.18 365.72 L 394.13 373.46 L 390.30 380.64 L 385.72 387.12 L 380.48 392.82 L 374.70 397.68 L 368.52 401.68 L 362.06 404.86 L 363.17 405.29 L 364.11 405.48 L 364.89 405.43 L 365.48 405.12 L 365.90 404.56 L 366.13 403.75 L 366.17 402.70 L 366.02 401.40 L 365.70 399.88 L 365.21 398.15 L 375.41 392.05 L 385.44 384.74 L 395.01 376.23 L 403.85 366.56 L 411.69 355.89 L 418.33 344.46 L 423.63 332.53 L 427.59 320.40 L 430.23 308.36 L 431.70 296.65 Z" fill="url(#panel-grad)" />
    <path d="M 130.42 294.73 L 122.45 287.50 L 114.77 279.80 L 107.57 271.75 L 101.01 263.43 L 95.23 254.97 L 90.34 246.53 L 86.41 238.23 L 83.45 230.20 L 81.44 222.55 L 80.30 215.35 L 79.39 209.93 L 79.28 204.49 L 80.06 199.14 L 81.81 193.99 L 84.54 189.11 L 88.22 184.61 L 92.77 180.55 L 98.09 176.97 L 104.01 173.89 L 110.40 171.31 L 106.95 183.67 L 104.24 197.19 L 102.47 211.71 L 101.76 227.00 L 102.24 242.75 L 103.91 258.60 L 106.70 274.19 L 110.48 289.19 L 115.06 303.34 L 120.24 316.44 L 113.88 319.49 L 107.94 322.35 L 102.57 324.97 L 97.89 327.28 L 94.04 329.22 L 91.09 330.76 L 89.06 331.87 L 87.96 332.55 L 87.72 332.84 L 88.27 332.77 L 88.77 330.62 L 90.08 328.03 L 92.29 324.99 L 95.42 321.51 L 99.47 317.64 L 104.40 313.42 L 110.09 308.93 L 116.43 304.26 L 123.25 299.50 L 130.42 294.73 Z" fill="url(#panel-grad)" />
    <path d="M 149.94 107.14 L 148.83 106.71 L 147.89 106.52 L 147.11 106.57 L 146.52 106.88 L 146.10 107.44 L 145.87 108.25 L 145.83 109.30 L 145.98 110.60 L 146.30 112.12 L 146.79 113.85 L 137.18 121.68 L 127.75 130.49 L 118.66 140.21 L 110.12 150.77 L 102.28 162.03 L 95.30 173.81 L 89.26 185.91 L 84.24 198.11 L 80.21 210.22 L 77.16 222.06 L 79.18 216.70 L 81.52 211.32 L 84.17 205.97 L 87.12 200.67 L 90.37 195.44 L 93.90 190.32 L 97.69 185.31 L 101.73 180.47 L 105.97 175.79 L 110.40 171.31 L 104.01 173.89 L 98.09 176.97 L 92.77 180.55 L 88.22 184.61 L 84.54 189.11 L 81.81 193.99 L 80.06 199.14 L 79.28 204.49 L 79.39 209.93 L 80.30 215.35 L 82.67 209.26 L 85.35 203.17 L 88.33 197.10 L 91.62 191.09 L 95.20 185.17 L 99.04 179.36 L 103.14 173.71 L 107.47 168.23 L 112.00 162.95 L 116.69 157.89 L 119.02 152.05 L 121.58 146.30 L 124.40 140.68 L 127.46 135.20 L 130.74 129.92 L 134.24 124.85 L 137.93 120.02 L 141.79 115.45 L 145.80 111.14 L 149.94 107.14 Z" fill="url(#panel-grad)" />
    <path d="M 274.38 73.03 L 268.41 73.05 L 262.34 73.37 L 256.19 74.00 L 250.01 74.94 L 243.81 76.18 L 237.63 77.73 L 231.51 79.58 L 225.47 81.71 L 219.53 84.10 L 213.74 86.73 L 211.79 82.92 L 210.01 79.99 L 208.48 78.15 L 207.24 77.55 L 206.37 78.33 L 205.87 80.47 L 205.76 83.92 L 206.02 88.49 L 206.60 93.99 L 207.44 100.15 L 213.50 96.94 L 219.72 93.94 L 226.06 91.18 L 232.50 88.68 L 238.99 86.46 L 245.51 84.52 L 252.03 82.87 L 258.51 81.53 L 264.93 80.49 L 271.24 79.74 L 258.86 79.22 L 245.95 79.53 L 232.67 80.74 L 219.24 82.92 L 205.85 86.08 L 192.75 90.18 L 180.13 95.14 L 168.18 100.84 L 157.03 107.13 L 146.79 113.85 L 146.30 112.12 L 145.98 110.60 L 145.83 109.30 L 145.87 108.25 L 146.10 107.44 L 146.52 106.88 L 147.11 106.57 L 147.89 106.52 L 148.83 106.71 L 149.94 107.14 L 160.25 100.27 L 171.45 93.85 L 183.45 88.06 L 196.10 83.04 L 209.21 78.92 L 222.58 75.78 L 236.00 73.65 L 249.22 72.53 L 262.07 72.36 L 274.38 73.03 Z" fill="url(#panel-grad)" />
    <path d="M 341.22 97.47 L 351.60 102.23 L 361.95 107.92 L 372.10 114.54 L 381.84 122.08 L 390.99 130.43 L 399.40 139.48 L 406.94 149.07 L 413.51 159.01 L 419.11 169.13 L 423.73 179.23 L 418.59 170.24 L 412.46 161.27 L 405.32 152.51 L 397.23 144.11 L 388.28 136.23 L 378.59 129.01 L 368.33 122.57 L 357.70 116.96 L 346.91 112.22 L 336.13 108.32 L 324.79 104.13 L 312.65 100.48 L 299.83 97.52 L 286.49 95.34 L 272.85 94.02 L 259.11 93.60 L 245.49 94.07 L 232.23 95.37 L 219.49 97.44 L 207.44 100.15 L 206.60 93.99 L 206.02 88.49 L 205.76 83.92 L 205.87 80.47 L 206.37 78.33 L 207.24 77.55 L 208.48 78.15 L 210.01 79.99 L 211.79 82.92 L 213.74 86.73 L 225.81 83.98 L 238.54 81.94 L 251.76 80.71 L 265.30 80.41 L 278.92 81.07 L 292.43 82.69 L 305.59 85.25 L 318.21 88.64 L 330.12 92.77 L 341.22 97.47 Z" fill="url(#panel-grad)" />
    <path d="M 379.39 119.28 L 387.36 126.21 L 395.04 134.03 L 402.25 142.74 L 408.84 152.25 L 414.66 162.43 L 419.59 173.13 L 423.59 184.16 L 426.62 195.34 L 428.71 206.46 L 429.92 217.37 L 431.70 224.40 L 433.23 231.56 L 434.48 238.85 L 435.43 246.20 L 436.08 253.60 L 436.44 261.01 L 436.48 268.38 L 436.22 275.68 L 435.67 282.88 L 434.84 289.94 L 434.86 297.27 L 434.03 304.72 L 432.27 312.15 L 429.51 319.44 L 425.78 326.47 L 421.10 333.10 L 415.57 339.24 L 409.33 344.82 L 402.51 349.78 L 395.31 354.11 L 401.49 343.47 L 407.24 331.96 L 412.40 319.70 L 416.83 306.83 L 420.43 293.53 L 423.12 280.03 L 424.87 266.55 L 425.69 253.29 L 425.64 240.47 L 424.83 228.23 L 424.02 216.46 L 422.38 204.38 L 419.83 192.18 L 416.34 180.06 L 411.94 168.22 L 406.67 156.86 L 400.64 146.18 L 393.98 136.30 L 386.84 127.32 L 379.39 119.28 Z" fill="url(#panel-grad)" />
    <path d="M 120.24 316.44 L 115.38 314.69 L 110.70 312.83 L 106.20 310.84 L 101.93 308.76 L 97.91 306.57 L 94.15 304.31 L 90.67 301.96 L 87.50 299.56 L 84.64 297.11 L 82.08 294.63 L 85.88 308.17 L 90.98 322.15 L 97.45 336.29 L 105.27 350.27 L 114.38 363.74 L 124.59 376.38 L 135.63 387.91 L 147.21 398.16 L 159.02 407.04 L 170.78 414.53 L 169.52 411.86 L 168.39 408.91 L 167.39 405.67 L 166.54 402.16 L 165.83 398.39 L 165.27 394.38 L 164.87 390.15 L 164.63 385.72 L 164.53 381.13 L 164.59 376.40 L 159.24 380.80 L 154.13 384.79 L 149.38 388.26 L 145.09 391.09 L 141.37 393.21 L 138.29 394.56 L 135.88 395.15 L 134.15 395.00 L 133.08 394.16 L 132.61 392.72 L 127.23 387.69 L 121.99 382.39 L 116.91 376.82 L 112.03 371.01 L 107.38 364.99 L 102.98 358.78 L 98.86 352.42 L 95.03 345.94 L 91.49 339.37 L 88.27 332.77 L 87.72 332.84 L 87.96 332.55 L 89.06 331.87 L 91.09 330.76 L 94.04 329.22 L 97.89 327.28 L 102.57 324.97 L 107.94 322.35 L 113.88 319.49 L 120.24 316.44 Z" fill="url(#panel-grad)" />
    <path d="M 431.70 296.65 L 430.23 308.36 L 427.59 320.40 L 423.63 332.53 L 418.33 344.46 L 411.69 355.89 L 403.85 366.56 L 395.01 376.23 L 385.44 384.74 L 375.41 392.05 L 365.21 398.15 L 360.85 404.16 L 355.80 409.70 L 350.08 414.65 L 343.74 418.85 L 336.84 422.19 L 329.48 424.62 L 321.81 426.10 L 313.97 426.65 L 306.07 426.35 L 298.26 425.27 L 297.96 422.69 L 297.57 419.79 L 297.12 416.60 L 296.59 413.12 L 295.99 409.36 L 295.33 405.33 L 294.60 401.08 L 293.81 396.60 L 292.97 391.94 L 292.07 387.13 L 298.39 383.67 L 304.71 379.96 L 311.01 376.00 L 317.27 371.83 L 323.45 367.43 L 329.51 362.85 L 335.43 358.10 L 341.17 353.23 L 346.72 348.23 L 352.05 343.15 L 362.38 340.38 L 372.63 337.08 L 382.62 333.27 L 392.14 328.96 L 401.02 324.20 L 409.09 319.06 L 416.24 313.64 L 422.40 308.02 L 427.54 302.33 L 431.70 296.65 Z" fill="url(#panel-grad)" />
    <path d="M 337.22 157.32 L 337.72 151.65 L 338.09 146.08 L 338.32 140.63 L 338.42 135.34 L 338.37 130.23 L 338.19 125.34 L 337.87 120.69 L 337.42 116.29 L 336.84 112.16 L 336.13 108.32 L 346.91 112.22 L 357.70 116.96 L 368.33 122.57 L 378.59 129.01 L 388.28 136.23 L 397.23 144.11 L 405.32 152.51 L 412.46 161.27 L 418.59 170.24 L 423.73 179.23 L 420.51 172.63 L 416.97 166.06 L 413.14 159.58 L 409.02 153.22 L 404.62 147.01 L 399.97 140.99 L 395.09 135.18 L 390.01 129.61 L 384.77 124.31 L 379.39 119.28 L 386.84 127.32 L 393.98 136.30 L 400.64 146.18 L 406.67 156.86 L 411.94 168.22 L 416.34 180.06 L 419.83 192.18 L 422.38 204.38 L 424.02 216.46 L 424.83 228.23 L 421.72 226.92 L 418.31 225.64 L 414.59 224.40 L 410.58 223.19 L 406.29 222.05 L 401.75 220.96 L 396.99 219.93 L 392.01 218.98 L 386.86 218.08 L 381.58 217.27 L 378.04 210.94 L 374.25 204.61 L 370.24 198.29 L 366.01 192.03 L 361.57 185.85 L 356.96 179.80 L 352.19 173.88 L 347.29 168.16 L 342.29 162.63 L 337.22 157.32 Z" fill="url(#panel-grad)" />
    <path d="M 298.26 425.27 L 292.47 427.90 L 286.53 430.29 L 280.49 432.42 L 274.37 434.27 L 268.19 435.82 L 261.99 437.06 L 255.81 438.00 L 249.66 438.63 L 243.59 438.95 L 237.62 438.97 L 229.73 436.73 L 221.64 433.54 L 213.47 429.33 L 205.34 424.10 L 197.41 417.89 L 189.79 410.78 L 182.63 402.91 L 176.00 394.43 L 169.97 385.53 L 164.59 376.40 L 164.53 381.13 L 164.63 385.72 L 164.87 390.15 L 165.27 394.38 L 165.83 398.39 L 166.54 402.16 L 167.39 405.67 L 168.39 408.91 L 169.52 411.86 L 170.78 414.53 L 174.41 412.83 L 178.58 410.32 L 183.28 406.93 L 188.47 402.67 L 194.10 397.54 L 200.07 391.63 L 206.28 385.05 L 212.62 377.92 L 218.97 370.42 L 225.24 362.69 L 231.74 365.94 L 238.37 369.07 L 245.10 372.03 L 251.89 374.82 L 258.71 377.41 L 265.53 379.80 L 272.30 381.97 L 279.01 383.92 L 285.61 385.64 L 292.07 387.13 L 292.97 391.94 L 293.81 396.60 L 294.60 401.08 L 295.33 405.33 L 295.99 409.36 L 296.59 413.12 L 297.12 416.60 L 297.57 419.79 L 297.96 422.69 L 298.26 425.27 Z" fill="url(#panel-grad)" />
    <path d="M 146.79 113.85 L 157.03 107.13 L 168.18 100.84 L 180.13 95.14 L 192.75 90.18 L 205.85 86.08 L 219.24 82.92 L 232.67 80.74 L 245.95 79.53 L 258.86 79.22 L 271.24 79.74 L 271.93 84.43 L 272.57 90.47 L 273.10 97.93 L 273.54 106.77 L 273.85 116.90 L 274.02 128.11 L 274.05 140.11 L 273.95 152.59 L 273.74 165.23 L 273.43 177.73 L 261.05 177.52 L 248.14 177.68 L 234.86 178.25 L 221.39 179.25 L 207.96 180.67 L 194.81 182.52 L 182.13 184.75 L 170.11 187.30 L 158.89 190.12 L 148.56 193.12 L 138.82 194.65 L 129.22 196.54 L 119.97 198.79 L 111.25 201.39 L 103.23 204.33 L 96.05 207.56 L 89.82 211.01 L 84.61 214.62 L 80.40 218.33 L 77.16 222.06 L 80.21 210.22 L 84.24 198.11 L 89.26 185.91 L 95.30 173.81 L 102.28 162.03 L 110.12 150.77 L 118.66 140.21 L 127.75 130.49 L 137.18 121.68 L 146.79 113.85 Z" fill="url(#panel-grad)" />
    <path d="M 110.40 171.31 L 105.97 175.79 L 101.73 180.47 L 97.69 185.31 L 93.90 190.32 L 90.37 195.44 L 87.12 200.67 L 84.17 205.97 L 81.52 211.32 L 79.18 216.70 L 77.16 222.06 L 80.40 218.33 L 84.61 214.62 L 89.82 211.01 L 96.05 207.56 L 103.23 204.33 L 111.25 201.39 L 119.97 198.79 L 129.22 196.54 L 138.82 194.65 L 148.56 193.12 L 148.26 199.97 L 148.13 206.99 L 148.18 214.17 L 148.41 221.47 L 148.82 228.84 L 149.41 236.27 L 150.18 243.71 L 151.12 251.11 L 152.22 258.45 L 153.48 265.69 L 143.84 268.87 L 134.35 272.12 L 125.17 275.39 L 116.49 278.63 L 108.48 281.78 L 101.29 284.79 L 95.02 287.61 L 89.72 290.20 L 85.42 292.55 L 82.08 294.63 L 84.64 297.11 L 87.50 299.56 L 90.67 301.96 L 94.15 304.31 L 97.91 306.57 L 101.93 308.76 L 106.20 310.84 L 110.70 312.83 L 115.38 314.69 L 120.24 316.44 L 115.06 303.34 L 110.48 289.19 L 106.70 274.19 L 103.91 258.60 L 102.24 242.75 L 101.76 227.00 L 102.47 211.71 L 104.24 197.19 L 106.95 183.67 L 110.40 171.31 Z" fill="url(#panel-grad)" />
    <path d="M 381.58 217.27 L 386.86 218.08 L 392.01 218.98 L 396.99 219.93 L 401.75 220.96 L 406.29 222.05 L 410.58 223.19 L 414.59 224.40 L 418.31 225.64 L 421.72 226.92 L 424.83 228.23 L 425.64 240.47 L 425.69 253.29 L 424.87 266.55 L 423.12 280.03 L 420.43 293.53 L 416.83 306.83 L 412.40 319.70 L 407.24 331.96 L 401.49 343.47 L 395.31 354.11 L 400.00 349.05 L 404.53 343.77 L 408.86 338.29 L 412.96 332.64 L 416.80 326.83 L 420.38 320.91 L 423.67 314.90 L 426.65 308.83 L 429.33 302.74 L 431.70 296.65 L 427.54 302.33 L 422.40 308.02 L 416.24 313.64 L 409.09 319.06 L 401.02 324.20 L 392.14 328.96 L 382.62 333.27 L 372.63 337.08 L 362.38 340.38 L 352.05 343.15 L 352.07 336.91 L 351.94 330.44 L 351.64 323.79 L 351.18 316.99 L 350.57 310.05 L 349.78 303.03 L 348.85 295.94 L 347.76 288.85 L 346.53 281.76 L 345.19 274.73 L 349.51 269.08 L 353.74 263.34 L 357.86 257.52 L 361.83 251.66 L 365.64 245.79 L 369.25 239.94 L 372.67 234.13 L 375.86 228.40 L 378.84 222.77 L 381.58 217.27 Z" fill="url(#panel-grad)" />
    <path d="M 208.53 149.14 L 214.72 151.23 L 221.06 153.52 L 227.51 155.99 L 234.06 158.65 L 240.67 161.49 L 247.30 164.49 L 253.93 167.62 L 260.51 170.89 L 267.02 174.27 L 273.43 177.73 L 273.74 165.23 L 273.95 152.59 L 274.05 140.11 L 274.02 128.11 L 273.85 116.90 L 273.54 106.77 L 273.10 97.93 L 272.57 90.47 L 271.93 84.43 L 271.24 79.74 L 264.93 80.49 L 258.51 81.53 L 252.03 82.87 L 245.51 84.52 L 238.99 86.46 L 232.50 88.68 L 226.06 91.18 L 219.72 93.94 L 213.50 96.94 L 207.44 100.15 L 219.49 97.44 L 232.23 95.37 L 245.49 94.07 L 259.11 93.60 L 272.85 94.02 L 286.49 95.34 L 299.83 97.52 L 312.65 100.48 L 324.79 104.13 L 336.13 108.32 L 336.84 112.16 L 337.42 116.29 L 337.87 120.69 L 338.19 125.34 L 338.37 130.23 L 338.42 135.34 L 338.32 140.63 L 338.09 146.08 L 337.72 151.65 L 337.22 157.32 L 325.91 154.23 L 313.79 151.51 L 300.99 149.24 L 287.67 147.49 L 274.01 146.31 L 260.27 145.75 L 246.65 145.79 L 233.37 146.40 L 220.62 147.55 L 208.53 149.14 Z" fill="url(#panel-grad)" />
    <path d="M 278.35 250.30 L 273.42 261.66 L 268.21 273.47 L 262.77 285.57 L 257.17 297.78 L 251.51 309.89 L 245.87 321.71 L 240.34 333.03 L 235.03 343.71 L 229.97 353.63 L 225.24 362.69 L 218.97 370.42 L 212.62 377.92 L 206.28 385.05 L 200.07 391.63 L 194.10 397.54 L 188.47 402.67 L 183.28 406.93 L 178.58 410.32 L 174.41 412.83 L 170.78 414.53 L 159.02 407.04 L 147.21 398.16 L 135.63 387.91 L 124.59 376.38 L 114.38 363.74 L 105.27 350.27 L 97.45 336.29 L 90.98 322.15 L 85.88 308.17 L 82.08 294.63 L 85.42 292.55 L 89.72 290.20 L 95.02 287.61 L 101.29 284.79 L 108.48 281.78 L 116.49 278.63 L 125.17 275.39 L 134.35 272.12 L 143.84 268.87 L 153.48 265.69 L 163.92 264.33 L 175.23 262.88 L 187.32 261.35 L 200.05 259.75 L 213.22 258.13 L 226.62 256.48 L 240.04 254.85 L 253.26 253.26 L 266.08 251.74 L 278.35 250.30 Z" fill="url(#panel-grad)" />
    <path d="M 337.22 157.32 L 342.29 162.63 L 347.29 168.16 L 352.19 173.88 L 356.96 179.80 L 361.57 185.85 L 366.01 192.03 L 370.24 198.29 L 374.25 204.61 L 378.04 210.94 L 381.58 217.27 L 378.84 222.77 L 375.86 228.40 L 372.67 234.13 L 369.25 239.94 L 365.64 245.79 L 361.83 251.66 L 357.86 257.52 L 353.74 263.34 L 349.51 269.08 L 345.19 274.73 L 334.24 277.16 L 322.48 279.58 L 309.99 281.96 L 296.93 284.26 L 283.51 286.42 L 269.94 288.41 L 256.44 290.21 L 243.23 291.79 L 230.49 293.15 L 218.38 294.27 L 216.20 280.49 L 214.17 265.77 L 212.32 250.33 L 210.75 234.46 L 209.50 218.52 L 208.61 202.87 L 208.09 187.85 L 207.93 173.77 L 208.09 160.83 L 208.53 149.14 L 220.62 147.55 L 233.37 146.40 L 246.65 145.79 L 260.27 145.75 L 274.01 146.31 L 287.67 147.49 L 300.99 149.24 L 313.79 151.51 L 325.91 154.23 L 337.22 157.32 Z" fill="url(#panel-grad)" />
    <path d="M 345.19 274.73 L 346.53 281.76 L 347.76 288.85 L 348.85 295.94 L 349.78 303.03 L 350.57 310.05 L 351.18 316.99 L 351.64 323.79 L 351.94 330.44 L 352.07 336.91 L 352.05 343.15 L 346.72 348.23 L 341.17 353.23 L 335.43 358.10 L 329.51 362.85 L 323.45 367.43 L 317.27 371.83 L 311.01 376.00 L 304.71 379.96 L 298.39 383.67 L 292.07 387.13 L 285.61 385.64 L 279.01 383.92 L 272.30 381.97 L 265.53 379.80 L 258.71 377.41 L 251.89 374.82 L 245.10 372.03 L 238.37 369.07 L 231.74 365.94 L 225.24 362.69 L 229.97 353.63 L 235.03 343.71 L 240.34 333.03 L 245.87 321.71 L 251.51 309.89 L 257.17 297.78 L 262.77 285.57 L 268.21 273.47 L 273.42 261.66 L 278.35 250.30 L 272.47 254.68 L 266.49 259.13 L 260.43 263.62 L 254.33 268.13 L 248.20 272.63 L 242.09 277.10 L 236.02 281.52 L 230.02 285.87 L 224.13 290.12 L 218.38 294.27 L 230.49 293.15 L 243.23 291.79 L 256.44 290.21 L 269.94 288.41 L 283.51 286.42 L 296.93 284.26 L 309.99 281.96 L 322.48 279.58 L 334.24 277.16 L 345.19 274.73 Z" fill="url(#panel-grad)" />
    <path d="M 218.38 294.27 L 224.13 290.12 L 230.02 285.87 L 236.02 281.52 L 242.09 277.10 L 248.20 272.63 L 254.33 268.13 L 260.43 263.62 L 266.49 259.13 L 272.47 254.68 L 278.35 250.30 L 266.08 251.74 L 253.26 253.26 L 240.04 254.85 L 226.62 256.48 L 213.22 258.13 L 200.05 259.75 L 187.32 261.35 L 175.23 262.88 L 163.92 264.33 L 153.48 265.69 L 152.22 258.45 L 151.12 251.11 L 150.18 243.71 L 149.41 236.27 L 148.82 228.84 L 148.41 221.47 L 148.18 214.17 L 148.13 206.99 L 148.26 199.97 L 148.56 193.12 L 158.89 190.12 L 170.11 187.30 L 182.13 184.75 L 194.81 182.52 L 207.96 180.67 L 221.39 179.25 L 234.86 178.25 L 248.14 177.68 L 261.05 177.52 L 273.43 177.73 L 267.02 174.27 L 260.51 170.89 L 253.93 167.62 L 247.30 164.49 L 240.67 161.49 L 234.06 158.65 L 227.51 155.99 L 221.06 153.52 L 214.72 151.23 L 208.53 149.14 L 208.09 160.83 L 207.93 173.77 L 208.09 187.85 L 208.61 202.87 L 209.50 218.52 L 210.75 234.46 L 212.32 250.33 L 214.17 265.77 L 216.20 280.49 L 218.38 294.27 Z" fill="url(#panel-grad)" />

    <!-- Panel lines with neon glow -->
    <path d="M 237.62 438.97 L 237.79 439.65 L 238.01 440.04 L 238.26 440.14 L 238.53 439.92 L 238.83 439.39 L 239.17 438.55 L 239.53 437.40 L 239.92 435.97 L 240.33 434.25 L 240.76 432.26 L 233.67 428.34 L 226.38 423.43 L 219.02 417.50 L 211.68 410.58 L 204.52 402.73 L 197.64 394.06 L 191.16 384.74 L 185.15 374.94 L 179.68 364.86 L 174.78 354.68 L 168.62 360.82 L 162.62 366.71 L 156.91 372.22 L 151.60 377.23 L 146.81 381.62 L 142.63 385.32 L 139.10 388.28 L 136.27 390.47 L 134.12 391.94 L 132.61 392.72 L 133.08 394.16 L 134.15 395.00 L 135.88 395.15 L 138.29 394.56 L 141.37 393.21 L 145.09 391.09 L 149.38 388.26 L 154.13 384.79 L 159.24 380.80 L 164.59 376.40 L 169.97 385.53 L 176.00 394.43 L 182.63 402.91 L 189.79 410.78 L 197.41 417.89 L 205.34 424.10 L 213.47 429.33 L 221.64 433.54 L 229.73 436.73 L 237.62 438.97 Z" fill="none" stroke="#d000ff" stroke-width="3" opacity="0.8" filter="url(#neon-glow-purple)" stroke-linejoin="round" />
    <path d="M 237.62 438.97 L 237.79 439.65 L 238.01 440.04 L 238.26 440.14 L 238.53 439.92 L 238.83 439.39 L 239.17 438.55 L 239.53 437.40 L 239.92 435.97 L 240.33 434.25 L 240.76 432.26 L 233.67 428.34 L 226.38 423.43 L 219.02 417.50 L 211.68 410.58 L 204.52 402.73 L 197.64 394.06 L 191.16 384.74 L 185.15 374.94 L 179.68 364.86 L 174.78 354.68 L 168.62 360.82 L 162.62 366.71 L 156.91 372.22 L 151.60 377.23 L 146.81 381.62 L 142.63 385.32 L 139.10 388.28 L 136.27 390.47 L 134.12 391.94 L 132.61 392.72 L 133.08 394.16 L 134.15 395.00 L 135.88 395.15 L 138.29 394.56 L 141.37 393.21 L 145.09 391.09 L 149.38 388.26 L 154.13 384.79 L 159.24 380.80 L 164.59 376.40 L 169.97 385.53 L 176.00 394.43 L 182.63 402.91 L 189.79 410.78 L 197.41 417.89 L 205.34 424.10 L 213.47 429.33 L 221.64 433.54 L 229.73 436.73 L 237.62 438.97 Z" fill="none" stroke="#ffd9ff" stroke-width="0.8" opacity="0.9" stroke-linejoin="round" />
    <path d="M 365.21 398.15 L 365.70 399.88 L 366.02 401.40 L 366.17 402.70 L 366.13 403.75 L 365.90 404.56 L 365.48 405.12 L 364.89 405.43 L 364.11 405.48 L 363.17 405.29 L 362.06 404.86 L 358.59 408.96 L 354.49 412.50 L 349.75 415.35 L 344.41 417.42 L 338.52 418.62 L 332.17 418.91 L 325.48 418.31 L 318.55 416.87 L 311.55 414.68 L 304.56 411.85 L 298.50 415.06 L 292.28 418.06 L 285.94 420.82 L 279.50 423.32 L 273.01 425.54 L 266.49 427.48 L 259.97 429.13 L 253.49 430.47 L 247.07 431.51 L 240.76 432.26 L 240.33 434.25 L 239.92 435.97 L 239.53 437.40 L 239.17 438.55 L 238.83 439.39 L 238.53 439.92 L 238.26 440.14 L 238.01 440.04 L 237.79 439.65 L 237.62 438.97 L 243.59 438.95 L 249.66 438.63 L 255.81 438.00 L 261.99 437.06 L 268.19 435.82 L 274.37 434.27 L 280.49 432.42 L 286.53 430.29 L 292.47 427.90 L 298.26 425.27 L 306.07 426.35 L 313.97 426.65 L 321.81 426.10 L 329.48 424.62 L 336.84 422.19 L 343.74 418.85 L 350.08 414.65 L 355.80 409.70 L 360.85 404.16 L 365.21 398.15 Z" fill="none" stroke="#00f0ff" stroke-width="3" opacity="0.8" filter="url(#neon-glow-cyan)" stroke-linejoin="round" />
    <path d="M 365.21 398.15 L 365.70 399.88 L 366.02 401.40 L 366.17 402.70 L 366.13 403.75 L 365.90 404.56 L 365.48 405.12 L 364.89 405.43 L 364.11 405.48 L 363.17 405.29 L 362.06 404.86 L 358.59 408.96 L 354.49 412.50 L 349.75 415.35 L 344.41 417.42 L 338.52 418.62 L 332.17 418.91 L 325.48 418.31 L 318.55 416.87 L 311.55 414.68 L 304.56 411.85 L 298.50 415.06 L 292.28 418.06 L 285.94 420.82 L 279.50 423.32 L 273.01 425.54 L 266.49 427.48 L 259.97 429.13 L 253.49 430.47 L 247.07 431.51 L 240.76 432.26 L 240.33 434.25 L 239.92 435.97 L 239.53 437.40 L 239.17 438.55 L 238.83 439.39 L 238.53 439.92 L 238.26 440.14 L 238.01 440.04 L 237.79 439.65 L 237.62 438.97 L 243.59 438.95 L 249.66 438.63 L 255.81 438.00 L 261.99 437.06 L 268.19 435.82 L 274.37 434.27 L 280.49 432.42 L 286.53 430.29 L 292.47 427.90 L 298.26 425.27 L 306.07 426.35 L 313.97 426.65 L 321.81 426.10 L 329.48 424.62 L 336.84 422.19 L 343.74 418.85 L 350.08 414.65 L 355.80 409.70 L 360.85 404.16 L 365.21 398.15 Z" fill="none" stroke="#d9ffff" stroke-width="0.8" opacity="0.9" stroke-linejoin="round" />
    <path d="M 431.70 296.65 L 429.33 302.74 L 426.65 308.83 L 423.67 314.90 L 420.38 320.91 L 416.80 326.83 L 412.96 332.64 L 408.86 338.29 L 404.53 343.77 L 400.00 349.05 L 395.31 354.11 L 402.51 349.78 L 409.33 344.82 L 415.57 339.24 L 421.10 333.10 L 425.78 326.47 L 429.51 319.44 L 432.27 312.15 L 434.03 304.72 L 434.86 297.27 L 434.84 289.94 L 432.82 295.30 L 430.48 300.68 L 427.83 306.03 L 424.88 311.33 L 421.63 316.56 L 418.10 321.68 L 414.31 326.69 L 410.27 331.53 L 406.03 336.21 L 401.60 340.69 L 400.87 349.18 L 399.41 357.57 L 397.18 365.72 L 394.13 373.46 L 390.30 380.64 L 385.72 387.12 L 380.48 392.82 L 374.70 397.68 L 368.52 401.68 L 362.06 404.86 L 363.17 405.29 L 364.11 405.48 L 364.89 405.43 L 365.48 405.12 L 365.90 404.56 L 366.13 403.75 L 366.17 402.70 L 366.02 401.40 L 365.70 399.88 L 365.21 398.15 L 375.41 392.05 L 385.44 384.74 L 395.01 376.23 L 403.85 366.56 L 411.69 355.89 L 418.33 344.46 L 423.63 332.53 L 427.59 320.40 L 430.23 308.36 L 431.70 296.65 Z" fill="none" stroke="#00f0ff" stroke-width="3" opacity="0.8" filter="url(#neon-glow-cyan)" stroke-linejoin="round" />
    <path d="M 431.70 296.65 L 429.33 302.74 L 426.65 308.83 L 423.67 314.90 L 420.38 320.91 L 416.80 326.83 L 412.96 332.64 L 408.86 338.29 L 404.53 343.77 L 400.00 349.05 L 395.31 354.11 L 402.51 349.78 L 409.33 344.82 L 415.57 339.24 L 421.10 333.10 L 425.78 326.47 L 429.51 319.44 L 432.27 312.15 L 434.03 304.72 L 434.86 297.27 L 434.84 289.94 L 432.82 295.30 L 430.48 300.68 L 427.83 306.03 L 424.88 311.33 L 421.63 316.56 L 418.10 321.68 L 414.31 326.69 L 410.27 331.53 L 406.03 336.21 L 401.60 340.69 L 400.87 349.18 L 399.41 357.57 L 397.18 365.72 L 394.13 373.46 L 390.30 380.64 L 385.72 387.12 L 380.48 392.82 L 374.70 397.68 L 368.52 401.68 L 362.06 404.86 L 363.17 405.29 L 364.11 405.48 L 364.89 405.43 L 365.48 405.12 L 365.90 404.56 L 366.13 403.75 L 366.17 402.70 L 366.02 401.40 L 365.70 399.88 L 365.21 398.15 L 375.41 392.05 L 385.44 384.74 L 395.01 376.23 L 403.85 366.56 L 411.69 355.89 L 418.33 344.46 L 423.63 332.53 L 427.59 320.40 L 430.23 308.36 L 431.70 296.65 Z" fill="none" stroke="#d9ffff" stroke-width="0.8" opacity="0.9" stroke-linejoin="round" />
    <path d="M 130.42 294.73 L 122.45 287.50 L 114.77 279.80 L 107.57 271.75 L 101.01 263.43 L 95.23 254.97 L 90.34 246.53 L 86.41 238.23 L 83.45 230.20 L 81.44 222.55 L 80.30 215.35 L 79.39 209.93 L 79.28 204.49 L 80.06 199.14 L 81.81 193.99 L 84.54 189.11 L 88.22 184.61 L 92.77 180.55 L 98.09 176.97 L 104.01 173.89 L 110.40 171.31 L 106.95 183.67 L 104.24 197.19 L 102.47 211.71 L 101.76 227.00 L 102.24 242.75 L 103.91 258.60 L 106.70 274.19 L 110.48 289.19 L 115.06 303.34 L 120.24 316.44 L 113.88 319.49 L 107.94 322.35 L 102.57 324.97 L 97.89 327.28 L 94.04 329.22 L 91.09 330.76 L 89.06 331.87 L 87.96 332.55 L 87.72 332.84 L 88.27 332.77 L 88.77 330.62 L 90.08 328.03 L 92.29 324.99 L 95.42 321.51 L 99.47 317.64 L 104.40 313.42 L 110.09 308.93 L 116.43 304.26 L 123.25 299.50 L 130.42 294.73 Z" fill="none" stroke="#d000ff" stroke-width="3" opacity="0.8" filter="url(#neon-glow-purple)" stroke-linejoin="round" />
    <path d="M 130.42 294.73 L 122.45 287.50 L 114.77 279.80 L 107.57 271.75 L 101.01 263.43 L 95.23 254.97 L 90.34 246.53 L 86.41 238.23 L 83.45 230.20 L 81.44 222.55 L 80.30 215.35 L 79.39 209.93 L 79.28 204.49 L 80.06 199.14 L 81.81 193.99 L 84.54 189.11 L 88.22 184.61 L 92.77 180.55 L 98.09 176.97 L 104.01 173.89 L 110.40 171.31 L 106.95 183.67 L 104.24 197.19 L 102.47 211.71 L 101.76 227.00 L 102.24 242.75 L 103.91 258.60 L 106.70 274.19 L 110.48 289.19 L 115.06 303.34 L 120.24 316.44 L 113.88 319.49 L 107.94 322.35 L 102.57 324.97 L 97.89 327.28 L 94.04 329.22 L 91.09 330.76 L 89.06 331.87 L 87.96 332.55 L 87.72 332.84 L 88.27 332.77 L 88.77 330.62 L 90.08 328.03 L 92.29 324.99 L 95.42 321.51 L 99.47 317.64 L 104.40 313.42 L 110.09 308.93 L 116.43 304.26 L 123.25 299.50 L 130.42 294.73 Z" fill="none" stroke="#ffd9ff" stroke-width="0.8" opacity="0.9" stroke-linejoin="round" />
    <path d="M 149.94 107.14 L 148.83 106.71 L 147.89 106.52 L 147.11 106.57 L 146.52 106.88 L 146.10 107.44 L 145.87 108.25 L 145.83 109.30 L 145.98 110.60 L 146.30 112.12 L 146.79 113.85 L 137.18 121.68 L 127.75 130.49 L 118.66 140.21 L 110.12 150.77 L 102.28 162.03 L 95.30 173.81 L 89.26 185.91 L 84.24 198.11 L 80.21 210.22 L 77.16 222.06 L 79.18 216.70 L 81.52 211.32 L 84.17 205.97 L 87.12 200.67 L 90.37 195.44 L 93.90 190.32 L 97.69 185.31 L 101.73 180.47 L 105.97 175.79 L 110.40 171.31 L 104.01 173.89 L 98.09 176.97 L 92.77 180.55 L 88.22 184.61 L 84.54 189.11 L 81.81 193.99 L 80.06 199.14 L 79.28 204.49 L 79.39 209.93 L 80.30 215.35 L 82.67 209.26 L 85.35 203.17 L 88.33 197.10 L 91.62 191.09 L 95.20 185.17 L 99.04 179.36 L 103.14 173.71 L 107.47 168.23 L 112.00 162.95 L 116.69 157.89 L 119.02 152.05 L 121.58 146.30 L 124.40 140.68 L 127.46 135.20 L 130.74 129.92 L 134.24 124.85 L 137.93 120.02 L 141.79 115.45 L 145.80 111.14 L 149.94 107.14 Z" fill="none" stroke="#d000ff" stroke-width="3" opacity="0.8" filter="url(#neon-glow-purple)" stroke-linejoin="round" />
    <path d="M 149.94 107.14 L 148.83 106.71 L 147.89 106.52 L 147.11 106.57 L 146.52 106.88 L 146.10 107.44 L 145.87 108.25 L 145.83 109.30 L 145.98 110.60 L 146.30 112.12 L 146.79 113.85 L 137.18 121.68 L 127.75 130.49 L 118.66 140.21 L 110.12 150.77 L 102.28 162.03 L 95.30 173.81 L 89.26 185.91 L 84.24 198.11 L 80.21 210.22 L 77.16 222.06 L 79.18 216.70 L 81.52 211.32 L 84.17 205.97 L 87.12 200.67 L 90.37 195.44 L 93.90 190.32 L 97.69 185.31 L 101.73 180.47 L 105.97 175.79 L 110.40 171.31 L 104.01 173.89 L 98.09 176.97 L 92.77 180.55 L 88.22 184.61 L 84.54 189.11 L 81.81 193.99 L 80.06 199.14 L 79.28 204.49 L 79.39 209.93 L 80.30 215.35 L 82.67 209.26 L 85.35 203.17 L 88.33 197.10 L 91.62 191.09 L 95.20 185.17 L 99.04 179.36 L 103.14 173.71 L 107.47 168.23 L 112.00 162.95 L 116.69 157.89 L 119.02 152.05 L 121.58 146.30 L 124.40 140.68 L 127.46 135.20 L 130.74 129.92 L 134.24 124.85 L 137.93 120.02 L 141.79 115.45 L 145.80 111.14 L 149.94 107.14 Z" fill="none" stroke="#ffd9ff" stroke-width="0.8" opacity="0.9" stroke-linejoin="round" />
    <path d="M 274.38 73.03 L 268.41 73.05 L 262.34 73.37 L 256.19 74.00 L 250.01 74.94 L 243.81 76.18 L 237.63 77.73 L 231.51 79.58 L 225.47 81.71 L 219.53 84.10 L 213.74 86.73 L 211.79 82.92 L 210.01 79.99 L 208.48 78.15 L 207.24 77.55 L 206.37 78.33 L 205.87 80.47 L 205.76 83.92 L 206.02 88.49 L 206.60 93.99 L 207.44 100.15 L 213.50 96.94 L 219.72 93.94 L 226.06 91.18 L 232.50 88.68 L 238.99 86.46 L 245.51 84.52 L 252.03 82.87 L 258.51 81.53 L 264.93 80.49 L 271.24 79.74 L 258.86 79.22 L 245.95 79.53 L 232.67 80.74 L 219.24 82.92 L 205.85 86.08 L 192.75 90.18 L 180.13 95.14 L 168.18 100.84 L 157.03 107.13 L 146.79 113.85 L 146.30 112.12 L 145.98 110.60 L 145.83 109.30 L 145.87 108.25 L 146.10 107.44 L 146.52 106.88 L 147.11 106.57 L 147.89 106.52 L 148.83 106.71 L 149.94 107.14 L 160.25 100.27 L 171.45 93.85 L 183.45 88.06 L 196.10 83.04 L 209.21 78.92 L 222.58 75.78 L 236.00 73.65 L 249.22 72.53 L 262.07 72.36 L 274.38 73.03 Z" fill="none" stroke="#d000ff" stroke-width="3" opacity="0.8" filter="url(#neon-glow-purple)" stroke-linejoin="round" />
    <path d="M 274.38 73.03 L 268.41 73.05 L 262.34 73.37 L 256.19 74.00 L 250.01 74.94 L 243.81 76.18 L 237.63 77.73 L 231.51 79.58 L 225.47 81.71 L 219.53 84.10 L 213.74 86.73 L 211.79 82.92 L 210.01 79.99 L 208.48 78.15 L 207.24 77.55 L 206.37 78.33 L 205.87 80.47 L 205.76 83.92 L 206.02 88.49 L 206.60 93.99 L 207.44 100.15 L 213.50 96.94 L 219.72 93.94 L 226.06 91.18 L 232.50 88.68 L 238.99 86.46 L 245.51 84.52 L 252.03 82.87 L 258.51 81.53 L 264.93 80.49 L 271.24 79.74 L 258.86 79.22 L 245.95 79.53 L 232.67 80.74 L 219.24 82.92 L 205.85 86.08 L 192.75 90.18 L 180.13 95.14 L 168.18 100.84 L 157.03 107.13 L 146.79 113.85 L 146.30 112.12 L 145.98 110.60 L 145.83 109.30 L 145.87 108.25 L 146.10 107.44 L 146.52 106.88 L 147.11 106.57 L 147.89 106.52 L 148.83 106.71 L 149.94 107.14 L 160.25 100.27 L 171.45 93.85 L 183.45 88.06 L 196.10 83.04 L 209.21 78.92 L 222.58 75.78 L 236.00 73.65 L 249.22 72.53 L 262.07 72.36 L 274.38 73.03 Z" fill="none" stroke="#ffd9ff" stroke-width="0.8" opacity="0.9" stroke-linejoin="round" />
    <path d="M 341.22 97.47 L 351.60 102.23 L 361.95 107.92 L 372.10 114.54 L 381.84 122.08 L 390.99 130.43 L 399.40 139.48 L 406.94 149.07 L 413.51 159.01 L 419.11 169.13 L 423.73 179.23 L 418.59 170.24 L 412.46 161.27 L 405.32 152.51 L 397.23 144.11 L 388.28 136.23 L 378.59 129.01 L 368.33 122.57 L 357.70 116.96 L 346.91 112.22 L 336.13 108.32 L 324.79 104.13 L 312.65 100.48 L 299.83 97.52 L 286.49 95.34 L 272.85 94.02 L 259.11 93.60 L 245.49 94.07 L 232.23 95.37 L 219.49 97.44 L 207.44 100.15 L 206.60 93.99 L 206.02 88.49 L 205.76 83.92 L 205.87 80.47 L 206.37 78.33 L 207.24 77.55 L 208.48 78.15 L 210.01 79.99 L 211.79 82.92 L 213.74 86.73 L 225.81 83.98 L 238.54 81.94 L 251.76 80.71 L 265.30 80.41 L 278.92 81.07 L 292.43 82.69 L 305.59 85.25 L 318.21 88.64 L 330.12 92.77 L 341.22 97.47 Z" fill="none" stroke="#00f0ff" stroke-width="3" opacity="0.8" filter="url(#neon-glow-cyan)" stroke-linejoin="round" />
    <path d="M 341.22 97.47 L 351.60 102.23 L 361.95 107.92 L 372.10 114.54 L 381.84 122.08 L 390.99 130.43 L 399.40 139.48 L 406.94 149.07 L 413.51 159.01 L 419.11 169.13 L 423.73 179.23 L 418.59 170.24 L 412.46 161.27 L 405.32 152.51 L 397.23 144.11 L 388.28 136.23 L 378.59 129.01 L 368.33 122.57 L 357.70 116.96 L 346.91 112.22 L 336.13 108.32 L 324.79 104.13 L 312.65 100.48 L 299.83 97.52 L 286.49 95.34 L 272.85 94.02 L 259.11 93.60 L 245.49 94.07 L 232.23 95.37 L 219.49 97.44 L 207.44 100.15 L 206.60 93.99 L 206.02 88.49 L 205.76 83.92 L 205.87 80.47 L 206.37 78.33 L 207.24 77.55 L 208.48 78.15 L 210.01 79.99 L 211.79 82.92 L 213.74 86.73 L 225.81 83.98 L 238.54 81.94 L 251.76 80.71 L 265.30 80.41 L 278.92 81.07 L 292.43 82.69 L 305.59 85.25 L 318.21 88.64 L 330.12 92.77 L 341.22 97.47 Z" fill="none" stroke="#d9ffff" stroke-width="0.8" opacity="0.9" stroke-linejoin="round" />
    <path d="M 379.39 119.28 L 387.36 126.21 L 395.04 134.03 L 402.25 142.74 L 408.84 152.25 L 414.66 162.43 L 419.59 173.13 L 423.59 184.16 L 426.62 195.34 L 428.71 206.46 L 429.92 217.37 L 431.70 224.40 L 433.23 231.56 L 434.48 238.85 L 435.43 246.20 L 436.08 253.60 L 436.44 261.01 L 436.48 268.38 L 436.22 275.68 L 435.67 282.88 L 434.84 289.94 L 434.86 297.27 L 434.03 304.72 L 432.27 312.15 L 429.51 319.44 L 425.78 326.47 L 421.10 333.10 L 415.57 339.24 L 409.33 344.82 L 402.51 349.78 L 395.31 354.11 L 401.49 343.47 L 407.24 331.96 L 412.40 319.70 L 416.83 306.83 L 420.43 293.53 L 423.12 280.03 L 424.87 266.55 L 425.69 253.29 L 425.64 240.47 L 424.83 228.23 L 424.02 216.46 L 422.38 204.38 L 419.83 192.18 L 416.34 180.06 L 411.94 168.22 L 406.67 156.86 L 400.64 146.18 L 393.98 136.30 L 386.84 127.32 L 379.39 119.28 Z" fill="none" stroke="#00f0ff" stroke-width="3" opacity="0.8" filter="url(#neon-glow-cyan)" stroke-linejoin="round" />
    <path d="M 379.39 119.28 L 387.36 126.21 L 395.04 134.03 L 402.25 142.74 L 408.84 152.25 L 414.66 162.43 L 419.59 173.13 L 423.59 184.16 L 426.62 195.34 L 428.71 206.46 L 429.92 217.37 L 431.70 224.40 L 433.23 231.56 L 434.48 238.85 L 435.43 246.20 L 436.08 253.60 L 436.44 261.01 L 436.48 268.38 L 436.22 275.68 L 435.67 282.88 L 434.84 289.94 L 434.86 297.27 L 434.03 304.72 L 432.27 312.15 L 429.51 319.44 L 425.78 326.47 L 421.10 333.10 L 415.57 339.24 L 409.33 344.82 L 402.51 349.78 L 395.31 354.11 L 401.49 343.47 L 407.24 331.96 L 412.40 319.70 L 416.83 306.83 L 420.43 293.53 L 423.12 280.03 L 424.87 266.55 L 425.69 253.29 L 425.64 240.47 L 424.83 228.23 L 424.02 216.46 L 422.38 204.38 L 419.83 192.18 L 416.34 180.06 L 411.94 168.22 L 406.67 156.86 L 400.64 146.18 L 393.98 136.30 L 386.84 127.32 L 379.39 119.28 Z" fill="none" stroke="#d9ffff" stroke-width="0.8" opacity="0.9" stroke-linejoin="round" />
    <path d="M 120.24 316.44 L 115.38 314.69 L 110.70 312.83 L 106.20 310.84 L 101.93 308.76 L 97.91 306.57 L 94.15 304.31 L 90.67 301.96 L 87.50 299.56 L 84.64 297.11 L 82.08 294.63 L 85.88 308.17 L 90.98 322.15 L 97.45 336.29 L 105.27 350.27 L 114.38 363.74 L 124.59 376.38 L 135.63 387.91 L 147.21 398.16 L 159.02 407.04 L 170.78 414.53 L 169.52 411.86 L 168.39 408.91 L 167.39 405.67 L 166.54 402.16 L 165.83 398.39 L 165.27 394.38 L 164.87 390.15 L 164.63 385.72 L 164.53 381.13 L 164.59 376.40 L 159.24 380.80 L 154.13 384.79 L 149.38 388.26 L 145.09 391.09 L 141.37 393.21 L 138.29 394.56 L 135.88 395.15 L 134.15 395.00 L 133.08 394.16 L 132.61 392.72 L 127.23 387.69 L 121.99 382.39 L 116.91 376.82 L 112.03 371.01 L 107.38 364.99 L 102.98 358.78 L 98.86 352.42 L 95.03 345.94 L 91.49 339.37 L 88.27 332.77 L 87.72 332.84 L 87.96 332.55 L 89.06 331.87 L 91.09 330.76 L 94.04 329.22 L 97.89 327.28 L 102.57 324.97 L 107.94 322.35 L 113.88 319.49 L 120.24 316.44 Z" fill="none" stroke="#d000ff" stroke-width="3" opacity="0.8" filter="url(#neon-glow-purple)" stroke-linejoin="round" />
    <path d="M 120.24 316.44 L 115.38 314.69 L 110.70 312.83 L 106.20 310.84 L 101.93 308.76 L 97.91 306.57 L 94.15 304.31 L 90.67 301.96 L 87.50 299.56 L 84.64 297.11 L 82.08 294.63 L 85.88 308.17 L 90.98 322.15 L 97.45 336.29 L 105.27 350.27 L 114.38 363.74 L 124.59 376.38 L 135.63 387.91 L 147.21 398.16 L 159.02 407.04 L 170.78 414.53 L 169.52 411.86 L 168.39 408.91 L 167.39 405.67 L 166.54 402.16 L 165.83 398.39 L 165.27 394.38 L 164.87 390.15 L 164.63 385.72 L 164.53 381.13 L 164.59 376.40 L 159.24 380.80 L 154.13 384.79 L 149.38 388.26 L 145.09 391.09 L 141.37 393.21 L 138.29 394.56 L 135.88 395.15 L 134.15 395.00 L 133.08 394.16 L 132.61 392.72 L 127.23 387.69 L 121.99 382.39 L 116.91 376.82 L 112.03 371.01 L 107.38 364.99 L 102.98 358.78 L 98.86 352.42 L 95.03 345.94 L 91.49 339.37 L 88.27 332.77 L 87.72 332.84 L 87.96 332.55 L 89.06 331.87 L 91.09 330.76 L 94.04 329.22 L 97.89 327.28 L 102.57 324.97 L 107.94 322.35 L 113.88 319.49 L 120.24 316.44 Z" fill="none" stroke="#ffd9ff" stroke-width="0.8" opacity="0.9" stroke-linejoin="round" />
    <path d="M 431.70 296.65 L 430.23 308.36 L 427.59 320.40 L 423.63 332.53 L 418.33 344.46 L 411.69 355.89 L 403.85 366.56 L 395.01 376.23 L 385.44 384.74 L 375.41 392.05 L 365.21 398.15 L 360.85 404.16 L 355.80 409.70 L 350.08 414.65 L 343.74 418.85 L 336.84 422.19 L 329.48 424.62 L 321.81 426.10 L 313.97 426.65 L 306.07 426.35 L 298.26 425.27 L 297.96 422.69 L 297.57 419.79 L 297.12 416.60 L 296.59 413.12 L 295.99 409.36 L 295.33 405.33 L 294.60 401.08 L 293.81 396.60 L 292.97 391.94 L 292.07 387.13 L 298.39 383.67 L 304.71 379.96 L 311.01 376.00 L 317.27 371.83 L 323.45 367.43 L 329.51 362.85 L 335.43 358.10 L 341.17 353.23 L 346.72 348.23 L 352.05 343.15 L 362.38 340.38 L 372.63 337.08 L 382.62 333.27 L 392.14 328.96 L 401.02 324.20 L 409.09 319.06 L 416.24 313.64 L 422.40 308.02 L 427.54 302.33 L 431.70 296.65 Z" fill="none" stroke="#00f0ff" stroke-width="3" opacity="0.8" filter="url(#neon-glow-cyan)" stroke-linejoin="round" />
    <path d="M 431.70 296.65 L 430.23 308.36 L 427.59 320.40 L 423.63 332.53 L 418.33 344.46 L 411.69 355.89 L 403.85 366.56 L 395.01 376.23 L 385.44 384.74 L 375.41 392.05 L 365.21 398.15 L 360.85 404.16 L 355.80 409.70 L 350.08 414.65 L 343.74 418.85 L 336.84 422.19 L 329.48 424.62 L 321.81 426.10 L 313.97 426.65 L 306.07 426.35 L 298.26 425.27 L 297.96 422.69 L 297.57 419.79 L 297.12 416.60 L 296.59 413.12 L 295.99 409.36 L 295.33 405.33 L 294.60 401.08 L 293.81 396.60 L 292.97 391.94 L 292.07 387.13 L 298.39 383.67 L 304.71 379.96 L 311.01 376.00 L 317.27 371.83 L 323.45 367.43 L 329.51 362.85 L 335.43 358.10 L 341.17 353.23 L 346.72 348.23 L 352.05 343.15 L 362.38 340.38 L 372.63 337.08 L 382.62 333.27 L 392.14 328.96 L 401.02 324.20 L 409.09 319.06 L 416.24 313.64 L 422.40 308.02 L 427.54 302.33 L 431.70 296.65 Z" fill="none" stroke="#d9ffff" stroke-width="0.8" opacity="0.9" stroke-linejoin="round" />
    <path d="M 337.22 157.32 L 337.72 151.65 L 338.09 146.08 L 338.32 140.63 L 338.42 135.34 L 338.37 130.23 L 338.19 125.34 L 337.87 120.69 L 337.42 116.29 L 336.84 112.16 L 336.13 108.32 L 346.91 112.22 L 357.70 116.96 L 368.33 122.57 L 378.59 129.01 L 388.28 136.23 L 397.23 144.11 L 405.32 152.51 L 412.46 161.27 L 418.59 170.24 L 423.73 179.23 L 420.51 172.63 L 416.97 166.06 L 413.14 159.58 L 409.02 153.22 L 404.62 147.01 L 399.97 140.99 L 395.09 135.18 L 390.01 129.61 L 384.77 124.31 L 379.39 119.28 L 386.84 127.32 L 393.98 136.30 L 400.64 146.18 L 406.67 156.86 L 411.94 168.22 L 416.34 180.06 L 419.83 192.18 L 422.38 204.38 L 424.02 216.46 L 424.83 228.23 L 421.72 226.92 L 418.31 225.64 L 414.59 224.40 L 410.58 223.19 L 406.29 222.05 L 401.75 220.96 L 396.99 219.93 L 392.01 218.98 L 386.86 218.08 L 381.58 217.27 L 378.04 210.94 L 374.25 204.61 L 370.24 198.29 L 366.01 192.03 L 361.57 185.85 L 356.96 179.80 L 352.19 173.88 L 347.29 168.16 L 342.29 162.63 L 337.22 157.32 Z" fill="none" stroke="#00f0ff" stroke-width="3" opacity="0.8" filter="url(#neon-glow-cyan)" stroke-linejoin="round" />
    <path d="M 337.22 157.32 L 337.72 151.65 L 338.09 146.08 L 338.32 140.63 L 338.42 135.34 L 338.37 130.23 L 338.19 125.34 L 337.87 120.69 L 337.42 116.29 L 336.84 112.16 L 336.13 108.32 L 346.91 112.22 L 357.70 116.96 L 368.33 122.57 L 378.59 129.01 L 388.28 136.23 L 397.23 144.11 L 405.32 152.51 L 412.46 161.27 L 418.59 170.24 L 423.73 179.23 L 420.51 172.63 L 416.97 166.06 L 413.14 159.58 L 409.02 153.22 L 404.62 147.01 L 399.97 140.99 L 395.09 135.18 L 390.01 129.61 L 384.77 124.31 L 379.39 119.28 L 386.84 127.32 L 393.98 136.30 L 400.64 146.18 L 406.67 156.86 L 411.94 168.22 L 416.34 180.06 L 419.83 192.18 L 422.38 204.38 L 424.02 216.46 L 424.83 228.23 L 421.72 226.92 L 418.31 225.64 L 414.59 224.40 L 410.58 223.19 L 406.29 222.05 L 401.75 220.96 L 396.99 219.93 L 392.01 218.98 L 386.86 218.08 L 381.58 217.27 L 378.04 210.94 L 374.25 204.61 L 370.24 198.29 L 366.01 192.03 L 361.57 185.85 L 356.96 179.80 L 352.19 173.88 L 347.29 168.16 L 342.29 162.63 L 337.22 157.32 Z" fill="none" stroke="#d9ffff" stroke-width="0.8" opacity="0.9" stroke-linejoin="round" />
    <path d="M 298.26 425.27 L 292.47 427.90 L 286.53 430.29 L 280.49 432.42 L 274.37 434.27 L 268.19 435.82 L 261.99 437.06 L 255.81 438.00 L 249.66 438.63 L 243.59 438.95 L 237.62 438.97 L 229.73 436.73 L 221.64 433.54 L 213.47 429.33 L 205.34 424.10 L 197.41 417.89 L 189.79 410.78 L 182.63 402.91 L 176.00 394.43 L 169.97 385.53 L 164.59 376.40 L 164.53 381.13 L 164.63 385.72 L 164.87 390.15 L 165.27 394.38 L 165.83 398.39 L 166.54 402.16 L 167.39 405.67 L 168.39 408.91 L 169.52 411.86 L 170.78 414.53 L 174.41 412.83 L 178.58 410.32 L 183.28 406.93 L 188.47 402.67 L 194.10 397.54 L 200.07 391.63 L 206.28 385.05 L 212.62 377.92 L 218.97 370.42 L 225.24 362.69 L 231.74 365.94 L 238.37 369.07 L 245.10 372.03 L 251.89 374.82 L 258.71 377.41 L 265.53 379.80 L 272.30 381.97 L 279.01 383.92 L 285.61 385.64 L 292.07 387.13 L 292.97 391.94 L 293.81 396.60 L 294.60 401.08 L 295.33 405.33 L 295.99 409.36 L 296.59 413.12 L 297.12 416.60 L 297.57 419.79 L 297.96 422.69 L 298.26 425.27 Z" fill="none" stroke="#d000ff" stroke-width="3" opacity="0.8" filter="url(#neon-glow-purple)" stroke-linejoin="round" />
    <path d="M 298.26 425.27 L 292.47 427.90 L 286.53 430.29 L 280.49 432.42 L 274.37 434.27 L 268.19 435.82 L 261.99 437.06 L 255.81 438.00 L 249.66 438.63 L 243.59 438.95 L 237.62 438.97 L 229.73 436.73 L 221.64 433.54 L 213.47 429.33 L 205.34 424.10 L 197.41 417.89 L 189.79 410.78 L 182.63 402.91 L 176.00 394.43 L 169.97 385.53 L 164.59 376.40 L 164.53 381.13 L 164.63 385.72 L 164.87 390.15 L 165.27 394.38 L 165.83 398.39 L 166.54 402.16 L 167.39 405.67 L 168.39 408.91 L 169.52 411.86 L 170.78 414.53 L 174.41 412.83 L 178.58 410.32 L 183.28 406.93 L 188.47 402.67 L 194.10 397.54 L 200.07 391.63 L 206.28 385.05 L 212.62 377.92 L 218.97 370.42 L 225.24 362.69 L 231.74 365.94 L 238.37 369.07 L 245.10 372.03 L 251.89 374.82 L 258.71 377.41 L 265.53 379.80 L 272.30 381.97 L 279.01 383.92 L 285.61 385.64 L 292.07 387.13 L 292.97 391.94 L 293.81 396.60 L 294.60 401.08 L 295.33 405.33 L 295.99 409.36 L 296.59 413.12 L 297.12 416.60 L 297.57 419.79 L 297.96 422.69 L 298.26 425.27 Z" fill="none" stroke="#ffd9ff" stroke-width="0.8" opacity="0.9" stroke-linejoin="round" />
    <path d="M 146.79 113.85 L 157.03 107.13 L 168.18 100.84 L 180.13 95.14 L 192.75 90.18 L 205.85 86.08 L 219.24 82.92 L 232.67 80.74 L 245.95 79.53 L 258.86 79.22 L 271.24 79.74 L 271.93 84.43 L 272.57 90.47 L 273.10 97.93 L 273.54 106.77 L 273.85 116.90 L 274.02 128.11 L 274.05 140.11 L 273.95 152.59 L 273.74 165.23 L 273.43 177.73 L 261.05 177.52 L 248.14 177.68 L 234.86 178.25 L 221.39 179.25 L 207.96 180.67 L 194.81 182.52 L 182.13 184.75 L 170.11 187.30 L 158.89 190.12 L 148.56 193.12 L 138.82 194.65 L 129.22 196.54 L 119.97 198.79 L 111.25 201.39 L 103.23 204.33 L 96.05 207.56 L 89.82 211.01 L 84.61 214.62 L 80.40 218.33 L 77.16 222.06 L 80.21 210.22 L 84.24 198.11 L 89.26 185.91 L 95.30 173.81 L 102.28 162.03 L 110.12 150.77 L 118.66 140.21 L 127.75 130.49 L 137.18 121.68 L 146.79 113.85 Z" fill="none" stroke="#d000ff" stroke-width="3" opacity="0.8" filter="url(#neon-glow-purple)" stroke-linejoin="round" />
    <path d="M 146.79 113.85 L 157.03 107.13 L 168.18 100.84 L 180.13 95.14 L 192.75 90.18 L 205.85 86.08 L 219.24 82.92 L 232.67 80.74 L 245.95 79.53 L 258.86 79.22 L 271.24 79.74 L 271.93 84.43 L 272.57 90.47 L 273.10 97.93 L 273.54 106.77 L 273.85 116.90 L 274.02 128.11 L 274.05 140.11 L 273.95 152.59 L 273.74 165.23 L 273.43 177.73 L 261.05 177.52 L 248.14 177.68 L 234.86 178.25 L 221.39 179.25 L 207.96 180.67 L 194.81 182.52 L 182.13 184.75 L 170.11 187.30 L 158.89 190.12 L 148.56 193.12 L 138.82 194.65 L 129.22 196.54 L 119.97 198.79 L 111.25 201.39 L 103.23 204.33 L 96.05 207.56 L 89.82 211.01 L 84.61 214.62 L 80.40 218.33 L 77.16 222.06 L 80.21 210.22 L 84.24 198.11 L 89.26 185.91 L 95.30 173.81 L 102.28 162.03 L 110.12 150.77 L 118.66 140.21 L 127.75 130.49 L 137.18 121.68 L 146.79 113.85 Z" fill="none" stroke="#ffd9ff" stroke-width="0.8" opacity="0.9" stroke-linejoin="round" />
    <path d="M 110.40 171.31 L 105.97 175.79 L 101.73 180.47 L 97.69 185.31 L 93.90 190.32 L 90.37 195.44 L 87.12 200.67 L 84.17 205.97 L 81.52 211.32 L 79.18 216.70 L 77.16 222.06 L 80.40 218.33 L 84.61 214.62 L 89.82 211.01 L 96.05 207.56 L 103.23 204.33 L 111.25 201.39 L 119.97 198.79 L 129.22 196.54 L 138.82 194.65 L 148.56 193.12 L 148.26 199.97 L 148.13 206.99 L 148.18 214.17 L 148.41 221.47 L 148.82 228.84 L 149.41 236.27 L 150.18 243.71 L 151.12 251.11 L 152.22 258.45 L 153.48 265.69 L 143.84 268.87 L 134.35 272.12 L 125.17 275.39 L 116.49 278.63 L 108.48 281.78 L 101.29 284.79 L 95.02 287.61 L 89.72 290.20 L 85.42 292.55 L 82.08 294.63 L 84.64 297.11 L 87.50 299.56 L 90.67 301.96 L 94.15 304.31 L 97.91 306.57 L 101.93 308.76 L 106.20 310.84 L 110.70 312.83 L 115.38 314.69 L 120.24 316.44 L 115.06 303.34 L 110.48 289.19 L 106.70 274.19 L 103.91 258.60 L 102.24 242.75 L 101.76 227.00 L 102.47 211.71 L 104.24 197.19 L 106.95 183.67 L 110.40 171.31 Z" fill="none" stroke="#d000ff" stroke-width="3" opacity="0.8" filter="url(#neon-glow-purple)" stroke-linejoin="round" />
    <path d="M 110.40 171.31 L 105.97 175.79 L 101.73 180.47 L 97.69 185.31 L 93.90 190.32 L 90.37 195.44 L 87.12 200.67 L 84.17 205.97 L 81.52 211.32 L 79.18 216.70 L 77.16 222.06 L 80.40 218.33 L 84.61 214.62 L 89.82 211.01 L 96.05 207.56 L 103.23 204.33 L 111.25 201.39 L 119.97 198.79 L 129.22 196.54 L 138.82 194.65 L 148.56 193.12 L 148.26 199.97 L 148.13 206.99 L 148.18 214.17 L 148.41 221.47 L 148.82 228.84 L 149.41 236.27 L 150.18 243.71 L 151.12 251.11 L 152.22 258.45 L 153.48 265.69 L 143.84 268.87 L 134.35 272.12 L 125.17 275.39 L 116.49 278.63 L 108.48 281.78 L 101.29 284.79 L 95.02 287.61 L 89.72 290.20 L 85.42 292.55 L 82.08 294.63 L 84.64 297.11 L 87.50 299.56 L 90.67 301.96 L 94.15 304.31 L 97.91 306.57 L 101.93 308.76 L 106.20 310.84 L 110.70 312.83 L 115.38 314.69 L 120.24 316.44 L 115.06 303.34 L 110.48 289.19 L 106.70 274.19 L 103.91 258.60 L 102.24 242.75 L 101.76 227.00 L 102.47 211.71 L 104.24 197.19 L 106.95 183.67 L 110.40 171.31 Z" fill="none" stroke="#ffd9ff" stroke-width="0.8" opacity="0.9" stroke-linejoin="round" />
    <path d="M 381.58 217.27 L 386.86 218.08 L 392.01 218.98 L 396.99 219.93 L 401.75 220.96 L 406.29 222.05 L 410.58 223.19 L 414.59 224.40 L 418.31 225.64 L 421.72 226.92 L 424.83 228.23 L 425.64 240.47 L 425.69 253.29 L 424.87 266.55 L 423.12 280.03 L 420.43 293.53 L 416.83 306.83 L 412.40 319.70 L 407.24 331.96 L 401.49 343.47 L 395.31 354.11 L 400.00 349.05 L 404.53 343.77 L 408.86 338.29 L 412.96 332.64 L 416.80 326.83 L 420.38 320.91 L 423.67 314.90 L 426.65 308.83 L 429.33 302.74 L 431.70 296.65 L 427.54 302.33 L 422.40 308.02 L 416.24 313.64 L 409.09 319.06 L 401.02 324.20 L 392.14 328.96 L 382.62 333.27 L 372.63 337.08 L 362.38 340.38 L 352.05 343.15 L 352.07 336.91 L 351.94 330.44 L 351.64 323.79 L 351.18 316.99 L 350.57 310.05 L 349.78 303.03 L 348.85 295.94 L 347.76 288.85 L 346.53 281.76 L 345.19 274.73 L 349.51 269.08 L 353.74 263.34 L 357.86 257.52 L 361.83 251.66 L 365.64 245.79 L 369.25 239.94 L 372.67 234.13 L 375.86 228.40 L 378.84 222.77 L 381.58 217.27 Z" fill="none" stroke="#00f0ff" stroke-width="3" opacity="0.8" filter="url(#neon-glow-cyan)" stroke-linejoin="round" />
    <path d="M 381.58 217.27 L 386.86 218.08 L 392.01 218.98 L 396.99 219.93 L 401.75 220.96 L 406.29 222.05 L 410.58 223.19 L 414.59 224.40 L 418.31 225.64 L 421.72 226.92 L 424.83 228.23 L 425.64 240.47 L 425.69 253.29 L 424.87 266.55 L 423.12 280.03 L 420.43 293.53 L 416.83 306.83 L 412.40 319.70 L 407.24 331.96 L 401.49 343.47 L 395.31 354.11 L 400.00 349.05 L 404.53 343.77 L 408.86 338.29 L 412.96 332.64 L 416.80 326.83 L 420.38 320.91 L 423.67 314.90 L 426.65 308.83 L 429.33 302.74 L 431.70 296.65 L 427.54 302.33 L 422.40 308.02 L 416.24 313.64 L 409.09 319.06 L 401.02 324.20 L 392.14 328.96 L 382.62 333.27 L 372.63 337.08 L 362.38 340.38 L 352.05 343.15 L 352.07 336.91 L 351.94 330.44 L 351.64 323.79 L 351.18 316.99 L 350.57 310.05 L 349.78 303.03 L 348.85 295.94 L 347.76 288.85 L 346.53 281.76 L 345.19 274.73 L 349.51 269.08 L 353.74 263.34 L 357.86 257.52 L 361.83 251.66 L 365.64 245.79 L 369.25 239.94 L 372.67 234.13 L 375.86 228.40 L 378.84 222.77 L 381.58 217.27 Z" fill="none" stroke="#d9ffff" stroke-width="0.8" opacity="0.9" stroke-linejoin="round" />
    <path d="M 208.53 149.14 L 214.72 151.23 L 221.06 153.52 L 227.51 155.99 L 234.06 158.65 L 240.67 161.49 L 247.30 164.49 L 253.93 167.62 L 260.51 170.89 L 267.02 174.27 L 273.43 177.73 L 273.74 165.23 L 273.95 152.59 L 274.05 140.11 L 274.02 128.11 L 273.85 116.90 L 273.54 106.77 L 273.10 97.93 L 272.57 90.47 L 271.93 84.43 L 271.24 79.74 L 264.93 80.49 L 258.51 81.53 L 252.03 82.87 L 245.51 84.52 L 238.99 86.46 L 232.50 88.68 L 226.06 91.18 L 219.72 93.94 L 213.50 96.94 L 207.44 100.15 L 219.49 97.44 L 232.23 95.37 L 245.49 94.07 L 259.11 93.60 L 272.85 94.02 L 286.49 95.34 L 299.83 97.52 L 312.65 100.48 L 324.79 104.13 L 336.13 108.32 L 336.84 112.16 L 337.42 116.29 L 337.87 120.69 L 338.19 125.34 L 338.37 130.23 L 338.42 135.34 L 338.32 140.63 L 338.09 146.08 L 337.72 151.65 L 337.22 157.32 L 325.91 154.23 L 313.79 151.51 L 300.99 149.24 L 287.67 147.49 L 274.01 146.31 L 260.27 145.75 L 246.65 145.79 L 233.37 146.40 L 220.62 147.55 L 208.53 149.14 Z" fill="none" stroke="#00f0ff" stroke-width="3" opacity="0.8" filter="url(#neon-glow-cyan)" stroke-linejoin="round" />
    <path d="M 208.53 149.14 L 214.72 151.23 L 221.06 153.52 L 227.51 155.99 L 234.06 158.65 L 240.67 161.49 L 247.30 164.49 L 253.93 167.62 L 260.51 170.89 L 267.02 174.27 L 273.43 177.73 L 273.74 165.23 L 273.95 152.59 L 274.05 140.11 L 274.02 128.11 L 273.85 116.90 L 273.54 106.77 L 273.10 97.93 L 272.57 90.47 L 271.93 84.43 L 271.24 79.74 L 264.93 80.49 L 258.51 81.53 L 252.03 82.87 L 245.51 84.52 L 238.99 86.46 L 232.50 88.68 L 226.06 91.18 L 219.72 93.94 L 213.50 96.94 L 207.44 100.15 L 219.49 97.44 L 232.23 95.37 L 245.49 94.07 L 259.11 93.60 L 272.85 94.02 L 286.49 95.34 L 299.83 97.52 L 312.65 100.48 L 324.79 104.13 L 336.13 108.32 L 336.84 112.16 L 337.42 116.29 L 337.87 120.69 L 338.19 125.34 L 338.37 130.23 L 338.42 135.34 L 338.32 140.63 L 338.09 146.08 L 337.72 151.65 L 337.22 157.32 L 325.91 154.23 L 313.79 151.51 L 300.99 149.24 L 287.67 147.49 L 274.01 146.31 L 260.27 145.75 L 246.65 145.79 L 233.37 146.40 L 220.62 147.55 L 208.53 149.14 Z" fill="none" stroke="#d9ffff" stroke-width="0.8" opacity="0.9" stroke-linejoin="round" />
    <path d="M 278.35 250.30 L 273.42 261.66 L 268.21 273.47 L 262.77 285.57 L 257.17 297.78 L 251.51 309.89 L 245.87 321.71 L 240.34 333.03 L 235.03 343.71 L 229.97 353.63 L 225.24 362.69 L 218.97 370.42 L 212.62 377.92 L 206.28 385.05 L 200.07 391.63 L 194.10 397.54 L 188.47 402.67 L 183.28 406.93 L 178.58 410.32 L 174.41 412.83 L 170.78 414.53 L 159.02 407.04 L 147.21 398.16 L 135.63 387.91 L 124.59 376.38 L 114.38 363.74 L 105.27 350.27 L 97.45 336.29 L 90.98 322.15 L 85.88 308.17 L 82.08 294.63 L 85.42 292.55 L 89.72 290.20 L 95.02 287.61 L 101.29 284.79 L 108.48 281.78 L 116.49 278.63 L 125.17 275.39 L 134.35 272.12 L 143.84 268.87 L 153.48 265.69 L 163.92 264.33 L 175.23 262.88 L 187.32 261.35 L 200.05 259.75 L 213.22 258.13 L 226.62 256.48 L 240.04 254.85 L 253.26 253.26 L 266.08 251.74 L 278.35 250.30 Z" fill="none" stroke="#d000ff" stroke-width="3" opacity="0.8" filter="url(#neon-glow-purple)" stroke-linejoin="round" />
    <path d="M 278.35 250.30 L 273.42 261.66 L 268.21 273.47 L 262.77 285.57 L 257.17 297.78 L 251.51 309.89 L 245.87 321.71 L 240.34 333.03 L 235.03 343.71 L 229.97 353.63 L 225.24 362.69 L 218.97 370.42 L 212.62 377.92 L 206.28 385.05 L 200.07 391.63 L 194.10 397.54 L 188.47 402.67 L 183.28 406.93 L 178.58 410.32 L 174.41 412.83 L 170.78 414.53 L 159.02 407.04 L 147.21 398.16 L 135.63 387.91 L 124.59 376.38 L 114.38 363.74 L 105.27 350.27 L 97.45 336.29 L 90.98 322.15 L 85.88 308.17 L 82.08 294.63 L 85.42 292.55 L 89.72 290.20 L 95.02 287.61 L 101.29 284.79 L 108.48 281.78 L 116.49 278.63 L 125.17 275.39 L 134.35 272.12 L 143.84 268.87 L 153.48 265.69 L 163.92 264.33 L 175.23 262.88 L 187.32 261.35 L 200.05 259.75 L 213.22 258.13 L 226.62 256.48 L 240.04 254.85 L 253.26 253.26 L 266.08 251.74 L 278.35 250.30 Z" fill="none" stroke="#ffd9ff" stroke-width="0.8" opacity="0.9" stroke-linejoin="round" />
    <path d="M 337.22 157.32 L 342.29 162.63 L 347.29 168.16 L 352.19 173.88 L 356.96 179.80 L 361.57 185.85 L 366.01 192.03 L 370.24 198.29 L 374.25 204.61 L 378.04 210.94 L 381.58 217.27 L 378.84 222.77 L 375.86 228.40 L 372.67 234.13 L 369.25 239.94 L 365.64 245.79 L 361.83 251.66 L 357.86 257.52 L 353.74 263.34 L 349.51 269.08 L 345.19 274.73 L 334.24 277.16 L 322.48 279.58 L 309.99 281.96 L 296.93 284.26 L 283.51 286.42 L 269.94 288.41 L 256.44 290.21 L 243.23 291.79 L 230.49 293.15 L 218.38 294.27 L 216.20 280.49 L 214.17 265.77 L 212.32 250.33 L 210.75 234.46 L 209.50 218.52 L 208.61 202.87 L 208.09 187.85 L 207.93 173.77 L 208.09 160.83 L 208.53 149.14 L 220.62 147.55 L 233.37 146.40 L 246.65 145.79 L 260.27 145.75 L 274.01 146.31 L 287.67 147.49 L 300.99 149.24 L 313.79 151.51 L 325.91 154.23 L 337.22 157.32 Z" fill="none" stroke="#00f0ff" stroke-width="3" opacity="0.8" filter="url(#neon-glow-cyan)" stroke-linejoin="round" />
    <path d="M 337.22 157.32 L 342.29 162.63 L 347.29 168.16 L 352.19 173.88 L 356.96 179.80 L 361.57 185.85 L 366.01 192.03 L 370.24 198.29 L 374.25 204.61 L 378.04 210.94 L 381.58 217.27 L 378.84 222.77 L 375.86 228.40 L 372.67 234.13 L 369.25 239.94 L 365.64 245.79 L 361.83 251.66 L 357.86 257.52 L 353.74 263.34 L 349.51 269.08 L 345.19 274.73 L 334.24 277.16 L 322.48 279.58 L 309.99 281.96 L 296.93 284.26 L 283.51 286.42 L 269.94 288.41 L 256.44 290.21 L 243.23 291.79 L 230.49 293.15 L 218.38 294.27 L 216.20 280.49 L 214.17 265.77 L 212.32 250.33 L 210.75 234.46 L 209.50 218.52 L 208.61 202.87 L 208.09 187.85 L 207.93 173.77 L 208.09 160.83 L 208.53 149.14 L 220.62 147.55 L 233.37 146.40 L 246.65 145.79 L 260.27 145.75 L 274.01 146.31 L 287.67 147.49 L 300.99 149.24 L 313.79 151.51 L 325.91 154.23 L 337.22 157.32 Z" fill="none" stroke="#d9ffff" stroke-width="0.8" opacity="0.9" stroke-linejoin="round" />
    <path d="M 345.19 274.73 L 346.53 281.76 L 347.76 288.85 L 348.85 295.94 L 349.78 303.03 L 350.57 310.05 L 351.18 316.99 L 351.64 323.79 L 351.94 330.44 L 352.07 336.91 L 352.05 343.15 L 346.72 348.23 L 341.17 353.23 L 335.43 358.10 L 329.51 362.85 L 323.45 367.43 L 317.27 371.83 L 311.01 376.00 L 304.71 379.96 L 298.39 383.67 L 292.07 387.13 L 285.61 385.64 L 279.01 383.92 L 272.30 381.97 L 265.53 379.80 L 258.71 377.41 L 251.89 374.82 L 245.10 372.03 L 238.37 369.07 L 231.74 365.94 L 225.24 362.69 L 229.97 353.63 L 235.03 343.71 L 240.34 333.03 L 245.87 321.71 L 251.51 309.89 L 257.17 297.78 L 262.77 285.57 L 268.21 273.47 L 273.42 261.66 L 278.35 250.30 L 272.47 254.68 L 266.49 259.13 L 260.43 263.62 L 254.33 268.13 L 248.20 272.63 L 242.09 277.10 L 236.02 281.52 L 230.02 285.87 L 224.13 290.12 L 218.38 294.27 L 230.49 293.15 L 243.23 291.79 L 256.44 290.21 L 269.94 288.41 L 283.51 286.42 L 296.93 284.26 L 309.99 281.96 L 322.48 279.58 L 334.24 277.16 L 345.19 274.73 Z" fill="none" stroke="#00f0ff" stroke-width="3" opacity="0.8" filter="url(#neon-glow-cyan)" stroke-linejoin="round" />
    <path d="M 345.19 274.73 L 346.53 281.76 L 347.76 288.85 L 348.85 295.94 L 349.78 303.03 L 350.57 310.05 L 351.18 316.99 L 351.64 323.79 L 351.94 330.44 L 352.07 336.91 L 352.05 343.15 L 346.72 348.23 L 341.17 353.23 L 335.43 358.10 L 329.51 362.85 L 323.45 367.43 L 317.27 371.83 L 311.01 376.00 L 304.71 379.96 L 298.39 383.67 L 292.07 387.13 L 285.61 385.64 L 279.01 383.92 L 272.30 381.97 L 265.53 379.80 L 258.71 377.41 L 251.89 374.82 L 245.10 372.03 L 238.37 369.07 L 231.74 365.94 L 225.24 362.69 L 229.97 353.63 L 235.03 343.71 L 240.34 333.03 L 245.87 321.71 L 251.51 309.89 L 257.17 297.78 L 262.77 285.57 L 268.21 273.47 L 273.42 261.66 L 278.35 250.30 L 272.47 254.68 L 266.49 259.13 L 260.43 263.62 L 254.33 268.13 L 248.20 272.63 L 242.09 277.10 L 236.02 281.52 L 230.02 285.87 L 224.13 290.12 L 218.38 294.27 L 230.49 293.15 L 243.23 291.79 L 256.44 290.21 L 269.94 288.41 L 283.51 286.42 L 296.93 284.26 L 309.99 281.96 L 322.48 279.58 L 334.24 277.16 L 345.19 274.73 Z" fill="none" stroke="#d9ffff" stroke-width="0.8" opacity="0.9" stroke-linejoin="round" />
    <path d="M 218.38 294.27 L 224.13 290.12 L 230.02 285.87 L 236.02 281.52 L 242.09 277.10 L 248.20 272.63 L 254.33 268.13 L 260.43 263.62 L 266.49 259.13 L 272.47 254.68 L 278.35 250.30 L 266.08 251.74 L 253.26 253.26 L 240.04 254.85 L 226.62 256.48 L 213.22 258.13 L 200.05 259.75 L 187.32 261.35 L 175.23 262.88 L 163.92 264.33 L 153.48 265.69 L 152.22 258.45 L 151.12 251.11 L 150.18 243.71 L 149.41 236.27 L 148.82 228.84 L 148.41 221.47 L 148.18 214.17 L 148.13 206.99 L 148.26 199.97 L 148.56 193.12 L 158.89 190.12 L 170.11 187.30 L 182.13 184.75 L 194.81 182.52 L 207.96 180.67 L 221.39 179.25 L 234.86 178.25 L 248.14 177.68 L 261.05 177.52 L 273.43 177.73 L 267.02 174.27 L 260.51 170.89 L 253.93 167.62 L 247.30 164.49 L 240.67 161.49 L 234.06 158.65 L 227.51 155.99 L 221.06 153.52 L 214.72 151.23 L 208.53 149.14 L 208.09 160.83 L 207.93 173.77 L 208.09 187.85 L 208.61 202.87 L 209.50 218.52 L 210.75 234.46 L 212.32 250.33 L 214.17 265.77 L 216.20 280.49 L 218.38 294.27 Z" fill="none" stroke="#d000ff" stroke-width="3" opacity="0.8" filter="url(#neon-glow-purple)" stroke-linejoin="round" />
    <path d="M 218.38 294.27 L 224.13 290.12 L 230.02 285.87 L 236.02 281.52 L 242.09 277.10 L 248.20 272.63 L 254.33 268.13 L 260.43 263.62 L 266.49 259.13 L 272.47 254.68 L 278.35 250.30 L 266.08 251.74 L 253.26 253.26 L 240.04 254.85 L 226.62 256.48 L 213.22 258.13 L 200.05 259.75 L 187.32 261.35 L 175.23 262.88 L 163.92 264.33 L 153.48 265.69 L 152.22 258.45 L 151.12 251.11 L 150.18 243.71 L 149.41 236.27 L 148.82 228.84 L 148.41 221.47 L 148.18 214.17 L 148.13 206.99 L 148.26 199.97 L 148.56 193.12 L 158.89 190.12 L 170.11 187.30 L 182.13 184.75 L 194.81 182.52 L 207.96 180.67 L 221.39 179.25 L 234.86 178.25 L 248.14 177.68 L 261.05 177.52 L 273.43 177.73 L 267.02 174.27 L 260.51 170.89 L 253.93 167.62 L 247.30 164.49 L 240.67 161.49 L 234.06 158.65 L 227.51 155.99 L 221.06 153.52 L 214.72 151.23 L 208.53 149.14 L 208.09 160.83 L 207.93 173.77 L 208.09 187.85 L 208.61 202.87 L 209.50 218.52 L 210.75 234.46 L 212.32 250.33 L 214.17 265.77 L 216.20 280.49 L 218.38 294.27 Z" fill="none" stroke="#ffd9ff" stroke-width="0.8" opacity="0.9" stroke-linejoin="round" />
  </g>

  <!-- Outer split ring -->
  <path d="M 106.09 405.91 A 212 212 0 0 1 310.87 51.22" fill="none" stroke="url(#left-ring-grad)" stroke-width="15" stroke-linecap="round" filter="url(#neon-glow-purple)" />
  <path d="M 106.09 405.91 A 212 212 0 0 1 310.87 51.22" fill="none" stroke="#ffd5ff" stroke-width="2.5" stroke-linecap="round" />
  <path d="M 405.91 106.09 A 212 212 0 0 1 201.13 460.78" fill="none" stroke="url(#right-ring-grad)" stroke-width="15" stroke-linecap="round" filter="url(#neon-glow-cyan)" />
  <path d="M 405.91 106.09 A 212 212 0 0 1 201.13 460.78" fill="none" stroke="#d5ffff" stroke-width="2.5" stroke-linecap="round" />

  <!-- Stylized Lightning Bolt -->
  <!-- Left Purple Glow -->
  <path d="M 360 40 L 240 210 L 310 210 L 140 470 L 250 270 L 180 270 Z" fill="#d000ff" opacity="0.85" filter="url(#neon-glow-purple)" transform="translate(-8, -4)" />
  
  <!-- Right Cyan Glow -->
  <path d="M 360 40 L 240 210 L 310 210 L 140 470 L 250 270 L 180 270 Z" fill="#00f6ff" opacity="0.85" filter="url(#neon-glow-cyan)" transform="translate(8, 4)" />
  
  <!-- White core of the lightning bolt -->
  <path d="M 360 40 L 240 210 L 310 210 L 140 470 L 250 270 L 180 270 Z" fill="#ffffff" stroke="#e0ffff" stroke-width="2.5" />
</svg>
